<svg width="400" height="400" viewBox="0 0 400 400" fill="none" xmlns="http://www.w3.org/2000/svg">
<path d="M200.301 280.902C221.518 280.902 241.866 272.474 256.869 257.471C271.872 242.468 280.301 222.12 280.301 200.902C280.301 179.685 271.872 159.337 256.869 144.334C241.866 129.331 221.518 120.902 200.301 120.902V280.902Z" fill="#EE6C4D"/>
<path fill-rule="evenodd" clip-rule="evenodd" d="M200 0C89.54 0 0 89.54 0 200C0 310.46 89.54 400 200 400C310.46 400 400 310.46 400 200C400 89.54 310.46 0 200 0ZM200 40V120C178.783 120 158.434 128.429 143.431 143.431C128.429 158.434 120 178.783 120 200C120 221.217 128.429 241.566 143.431 256.569C158.434 271.571 178.783 280 200 280V360C242.435 360 283.131 343.143 313.137 313.137C343.143 283.131 360 242.435 360 200C360 157.565 343.143 116.869 313.137 86.8629C283.131 56.8571 242.435 40 200 40Z" fill="#EE6C4D"/>
</svg>
