<svg width="1304" height="589" viewBox="0 0 1304 589" fill="none" xmlns="http://www.w3.org/2000/svg">
<g clip-path="url(#clip0_33_10)">
<rect width="1304" height="589" fill="#1F3134"/>
<path d="M170 380H173.75C179.25 380 183.25 382.4 185.75 387.2L215.9 444.05L246.05 387.2C248.55 382.4 252.55 380 258.05 380H261.8V485H257V384.2C255.3 384.3 253.9 384.75 252.8 385.55C251.8 386.35 250.8 387.65 249.8 389.45L215.9 453.65L182 389.45C181 387.65 179.95 386.35 178.85 385.55C177.85 384.75 176.5 384.3 174.8 384.2V485H170V380ZM371.429 486.5C358.529 486.5 348.579 483.2 341.579 476.6C334.679 470 331.229 460.6 331.229 448.4V416.6C331.229 404.4 334.679 395 341.579 388.4C348.579 381.8 358.529 378.5 371.429 378.5C384.329 378.5 394.229 381.8 401.129 388.4C408.129 395 411.629 404.4 411.629 416.6V448.4C411.629 460.6 408.129 470 401.129 476.6C394.229 483.2 384.329 486.5 371.429 486.5ZM371.429 482.3C382.729 482.3 391.429 479.4 397.529 473.6C403.729 467.7 406.829 459.3 406.829 448.4V416.6C406.829 405.7 403.729 397.35 397.529 391.55C391.429 385.65 382.729 382.7 371.429 382.7C360.129 382.7 351.379 385.65 345.179 391.55C339.079 397.35 336.029 405.7 336.029 416.6V448.4C336.029 459.3 339.079 467.7 345.179 473.6C351.379 479.4 360.129 482.3 371.429 482.3ZM481.096 380H517.396C527.996 380 536.396 381.7 542.596 385.1C548.796 388.5 553.296 394 556.096 401.6C558.896 409.2 560.296 419.5 560.296 432.5C560.296 445.5 558.896 455.8 556.096 463.4C553.296 471 548.796 476.5 542.596 479.9C536.396 483.3 527.996 485 517.396 485H481.096V380ZM517.396 480.8C526.896 480.8 534.396 479.25 539.896 476.15C545.396 473.05 549.346 468 551.746 461C554.246 454 555.496 444.5 555.496 432.5C555.496 420.6 554.246 411.15 551.746 404.15C549.246 397.15 545.246 392.1 539.746 389C534.246 385.8 526.796 384.2 517.396 384.2H485.896V480.8H517.396ZM657 485C645.9 485 637.65 482.5 632.25 477.5C626.95 472.5 624.3 464.8 624.3 454.4V410.6C624.3 400.2 626.95 392.5 632.25 387.5C637.65 382.5 645.9 380 657 380H693.75V384.2H657C647.4 384.2 640.35 386.35 635.85 390.65C631.35 394.85 629.1 401.5 629.1 410.6V430.25H685.65V434.45H629.1V454.4C629.1 463.5 631.35 470.2 635.85 474.5C640.35 478.7 647.4 480.8 657 480.8H695.1V485H657Z" fill="white"/>
<path d="M111 278C104.2 278 98.7 275.6 94.5 270.8C90.5 266 86.6 257.5 82.8 245.3L28.5 65H38.4L93.6 245.3C96.2 254.3 98.7 260.5 101.1 263.9C103.7 267.3 107 269 111 269C115 269 118.2 267.3 120.6 263.9C123.2 260.5 125.8 254.3 128.4 245.3L183.6 65H193.5L139.2 245.3C135.4 257.5 131.4 266 127.2 270.8C123.2 275.6 117.8 278 111 278ZM326.335 188.3L252.535 65H263.035L331.135 179L398.335 65H408.835L335.935 188.3V275H326.335V188.3ZM545.17 275C522.97 275 506.47 270 495.67 260C485.07 250 479.77 234.6 479.77 213.8V65H489.37V213.8C489.37 232 493.87 245.4 502.87 254C511.87 262.4 525.97 266.6 545.17 266.6H612.67V275H545.17ZM768.455 278C744.655 278 725.755 272.9 711.755 262.7C697.955 252.5 691.055 238.7 691.055 221.3V65H700.655V221.3C700.655 236.1 706.755 247.9 718.955 256.7C731.355 265.3 747.855 269.6 768.455 269.6C789.055 269.6 805.455 265.3 817.655 256.7C830.055 247.9 836.255 236.1 836.255 221.3V65H845.855V221.3C845.855 238.7 838.855 252.5 824.855 262.7C811.055 272.9 792.255 278 768.455 278Z" fill="white"/>
<path d="M1086.3 365.902C1107.52 365.902 1127.87 357.474 1142.87 342.471C1157.87 327.468 1166.3 307.12 1166.3 285.902C1166.3 264.685 1157.87 244.337 1142.87 229.334C1127.87 214.331 1107.52 205.902 1086.3 205.902V365.902Z" fill="#EE6C4D"/>
<path fill-rule="evenodd" clip-rule="evenodd" d="M1086 85C975.54 85 886 174.54 886 285C886 395.46 975.54 485 1086 485C1196.46 485 1286 395.46 1286 285C1286 174.54 1196.46 85 1086 85ZM1086 125V205C1064.78 205 1044.43 213.429 1029.43 228.431C1014.43 243.434 1006 263.783 1006 285C1006 306.217 1014.43 326.566 1029.43 341.569C1044.43 356.571 1064.78 365 1086 365V445C1128.43 445 1169.13 428.143 1199.14 398.137C1229.14 368.131 1246 327.435 1246 285C1246 242.565 1229.14 201.869 1199.14 171.863C1169.13 141.857 1128.43 125 1086 125Z" fill="#EE6C4D"/>
<line x1="27" y1="324.5" x2="855.039" y2="324.5" stroke="#EE6C4D" stroke-width="7"/>
</g>
<defs>
<clipPath id="clip0_33_10">
<rect width="1304" height="589" fill="white"/>
</clipPath>
</defs>
</svg>
